<svg t="1649302306306" class="icon" viewBox="0 0 1024 1024" version="1.1" xmlns="http://www.w3.org/2000/svg" p-id="7293" width="128" height="128"><path d="M874.442105 472.926316l-36.109473-235.250527a26.947368 26.947368 0 0 0-37.187369-20.749473c-1.616842 0-161.684211 66.829474-309.625263 7.814737-138.509474-53.894737-237.945263-49.313684-288.336842-39.612632V151.983158a26.947368 26.947368 0 0 0-53.894737 0v720.033684a26.947368 26.947368 0 0 0 53.894737 0V582.602105a328.757895 328.757895 0 0 1 161.68421-49.313684h1.616843a641.347368 641.347368 0 0 1 151.44421 20.749474c23.444211 5.12 47.966316 10.509474 72.757895 14.551579a346.004211 346.004211 0 0 0 275.132631-71.68 26.947368 26.947368 0 0 0 8.623158-23.983158zM203.183158 240.370526a369.448421 369.448421 0 0 1 142.551579 0l-6.467369 242.526316a377.263158 377.263158 0 0 0-134.736842 40.151579V240.370526z m396.126316 275.132632c-23.713684-4.042105-47.157895-9.162105-70.332632-14.012632a804.378947 804.378947 0 0 0-136.08421-21.288421l6.197894-229.052631a654.012632 654.012632 0 0 1 72.488421 23.983158 423.612632 423.612632 0 0 0 161.684211 28.294736l50.930526 213.962106a292.109474 292.109474 0 0 1-84.614737-1.886316z m137.431579-9.701053l-49.044211-206.147368a571.553684 571.553684 0 0 0 102.4-21.557895l28.564211 188.631579a296.421053 296.421053 0 0 1-81.92 39.073684z" fill="#2c2c2c" p-id="7294"></path></svg>