<svg t="1649302391752" class="icon" viewBox="0 0 1024 1024" version="1.1" xmlns="http://www.w3.org/2000/svg" p-id="7861" width="128" height="128"><path d="M507.64 65.61c17.69 0 32.03 14.34 32.03 32.03v64.03c0 17.69-14.34 32.03-32.03 32.03s-32.03-14.34-32.03-32.03V97.64c0-17.69 14.34-32.03 32.03-32.03zM763.8 449.85c0.01-17.68 14.34-32.02 32.03-32.02h64.03c17.68 0.3 31.78 14.88 31.48 32.56-0.29 17.26-14.22 31.19-31.48 31.48h-64.04c-17.69 0-32.02-14.33-32.02-32.02z m-640.41 0c0-17.68 14.33-32.02 32.02-32.02H219.46c17.68 0.3 31.78 14.88 31.48 32.56-0.29 17.26-14.22 31.19-31.48 31.48h-64.05c-17.68 0-32.01-14.34-32.02-32.02z m653.67-269.4c12.5 12.51 12.5 32.77 0 45.28L731.78 271c-12.84 12.17-33.11 11.63-45.28-1.2-11.71-12.36-11.71-31.72 0-44.07l45.28-45.28c12.51-12.5 32.78-12.5 45.28 0z m-538.84 0c12.5-12.5 32.77-12.5 45.28 0l45.28 45.28c12.22 12.79 11.76 33.06-1.02 45.28-12.38 11.84-31.88 11.83-44.26 0l-45.28-45.28c-12.5-12.51-12.5-32.78 0-45.28zM511.33 608.02c88.87 0 160.91-72.04 160.91-160.91s-72.04-160.9-160.91-160.9-160.9 72.04-160.9 160.91 72.05 160.9 160.9 160.9z m0 65.98c125.3 0 226.88-101.57 226.88-226.88 0.01-125.3-101.56-226.88-226.88-226.88-125.3 0-226.87 101.59-226.87 226.88S386.05 674 511.33 674z" p-id="7862"></path><path d="M817.38 650.44c13.33 12.41 14.08 33.29 1.67 46.62-158.27 169.98-424.37 179.47-594.35 21.2a422.314 422.314 0 0 1-21.06-21.05c-12.5-13.25-11.9-34.13 1.35-46.63s34.13-11.9 46.63 1.35c0.09 0.1 0.18 0.2 0.28 0.3 133.5 143.25 357.85 151.15 501.09 17.65 6.13-5.72 12.06-11.65 17.77-17.78 12.42-13.32 33.29-14.07 46.62-1.66z" p-id="7863"></path><path d="M913.18 734.58c13.42 12.32 14.32 33.18 2.01 46.61C811.36 894.3 664.88 958.7 511.34 958.73c-153.53 0.02-300.03-64.34-403.88-177.42-12.22-13.51-11.18-34.37 2.33-46.59 13.37-12.09 33.97-11.22 46.26 1.97 139.57 152 360.39 198.35 549.29 115.29a482.207 482.207 0 0 0 161.23-115.39c12.31-13.42 33.17-14.33 46.59-2.02 0.01 0 0.02 0 0.02 0.01z" p-id="7864"></path></svg>