<svg t="1649302341317" class="icon" viewBox="0 0 1024 1024" version="1.1" xmlns="http://www.w3.org/2000/svg" p-id="7575" width="128" height="128"><path d="M421.945 64.9l90.1 65.5 90.2-65.5 34.4 105.8h111.6l-34.8 106.2 90 65.3-55.8 40.7v-0.2l-12-45.1h-101c-0.2-4.8-0.7-9.7-1.4-14.5-2.6-17.4-9-34.1-18.7-48.8-8.2-12.1-18.5-22.7-30.4-31.2-54.6-39.8-131.2-27.9-171 26.7-0.1 0.1-0.1 0.2-0.2 0.2-1 1.4-2 2.8-2.9 4.2-12.8 18.6-19.9 40.6-20.5 63.2h-100.2l-12.1 45.6-56.5-41 90.2-65.3-34.5-106.1h111.3l34.2-105.7z" fill="#979797" p-id="7576"></path><path d="M310.869 366.232h115l-8.7 99h-132.6l26.3-99zM454.343 366.232h115.8l8.7 99h-133.3l8.8-99zM598.519 366.232h115.2l26.2 99h-132.7l-8.7-99zM610.006 493.659h137.7l32.2 121.4h-159.2l-10.7-121.4zM581.508 493.659l10.5 121.4h-159.7l10.6-121.4h138.6zM414.653 493.659l-10.9 121.4h-159.2l32.4-121.4h137.7zM401.4 643.453l-12.8 143H199.1l38-143h164.3zM594.622 643.453l12.6 143h-190.2l12.7-143h164.9zM635.741 786.453l-12.6-143h164.2l37.8 143h-189.4zM405.319 898.803l1.6-0.3 7.4-83.4h195.3l7.4 83.5 135.1 27.1 8.7 32.5 0.2 1.4h-498.1l9-33.9 133.4-26.7v-0.2z" fill="#979797" p-id="7577"></path></svg>