<svg t="1649302419968" class="icon" viewBox="0 0 1024 1024" version="1.1" xmlns="http://www.w3.org/2000/svg" p-id="8000" width="128" height="128"><path d="M140.34 812.4c-11.58-10.62-22.65-21.82-33.07-33.56-12.38-13.71-11.51-34.84 2.04-47.44 13.26-12.31 33.94-11.56 46.25 1.68 0.15 0.1 0.22 0.19 0.29 0.29C332.27 930.1 634.77 946.56 831.5 770.14c2.55-2.29 5.1-4.59 7.58-6.93 9.98-9.55 19.74-19.28 29.06-29.84 12.09-13.46 32.78-14.57 46.25-2.48 0.07 0.09 0.22 0.18 0.29 0.27v0.45c13.48 12.52 14.42 33.51 2.19 47.22-103.28 115-250.49 180.7-405.05 180.73-138.03-0.02-270.89-52.65-371.48-147.16z m84.86-98.42c-7.07-6.64-13.91-13.54-20.39-20.85-9.1-8.57-12.82-21.47-9.54-33.56a32.899 32.899 0 0 1 25.06-23.95c12.09-2.68 24.69 1.9 32.19 11.75C381.8 790.3 602.5 801.32 745.41 672.02c2.55-2.27 5.03-4.56 7.43-6.89 6.19-5.78 11.95-11.75 17.7-17.94 5.75-6.48 13.99-10.32 22.65-10.63 8.81-0.48 17.41 2.74 23.75 8.88l0.22 0.23c13.18 12.87 13.77 33.87 1.31 47.44-78.59 86.58-190.11 135.98-307.02 136.04a413.677 413.677 0 0 1-286.26-115.21v0.04z m62.13-266.23c-1.68-125.77 98.77-229.15 224.56-231 125.79 1.81 226.31 105.22 224.56 231 1.75 125.78-98.77 229.19-224.56 231-125.79-1.73-226.38-105.11-224.63-230.9v-0.15l0.07 0.05z m65.34 0c-0.22 43.26 16.53 84.87 46.62 115.94 29.5 30.63 70.07 47.99 112.61 48.11 89.15-1.42 160.39-74.66 159.37-163.83 1.31-89.32-70.07-162.79-159.37-164.09-89.23 1.26-160.46 74.59-159.23 163.78v0.09z m414.16 20.85c-1.53-4.12-2.33-8.48-2.26-12.87-0.15-8.63 3.2-16.94 9.32-23.04 5.83-6.13 13.91-9.51 22.36-9.32h64.32c17.85 0.14 32.27 14.72 32.12 32.6 0.15 17.87-14.28 32.46-32.12 32.6h-64.83a31.44 31.44 0 0 1-28.92-20.01v0.04zM155.2 488.33c-4.22-0.01-8.38-0.83-12.24-2.42-7.94-3.36-14.2-9.73-17.48-17.72-1.53-3.96-2.33-8.18-2.26-12.42a32.53 32.53 0 0 1 9.32-23.04c2.91-3.11 6.48-5.54 10.42-7.08a25.73 25.73 0 0 1 12.24-2.42h64.03c17.77 0.05 32.19 14.52 32.12 32.32v0.27c0.15 17.87-14.28 32.46-32.12 32.6l-64.03-0.09z m129-215.26l-45.67-45.69c-12.38-12.87-12.38-33.22 0-46.1h-0.22c12.31-12.49 32.41-12.65 44.87-0.36 0.15 0.12 0.22 0.24 0.36 0.36l45.67 46.1c8.45 8.2 11.87 20.27 9.1 31.7-2.91 11.32-11.8 20.14-23.09 23.04-2.62 0.74-5.32 1.11-8.09 1.12-8.74-0.05-17.04-3.77-22.94-10.23v0.06z m404.11-0.23c-12.24-12.4-12.53-32.26-0.66-45.01l45.67-46.1c12.31-12.49 32.41-12.65 44.87-0.36 0.15 0.12 0.22 0.24 0.36 0.36l-0.66-0.45c12.24 12.94 12.24 33.16 0 46.1l-45.45 46.13c-5.83 5.62-13.55 8.74-21.63 8.72a32.036 32.036 0 0 1-22.51-9.44v0.05zM475.98 162.23V97.04c-0.15-17.87 14.28-32.46 32.12-32.6 17.85 0.15 32.19 14.73 32.12 32.6v65.19c0.07 17.86-14.28 32.44-32.12 32.6-17.85-0.14-32.27-14.74-32.12-32.61v-0.03 0.04z" p-id="8001"></path></svg>