<svg t="1649237738431" class="icon" viewBox="0 0 1024 1024" version="1.1" xmlns="http://www.w3.org/2000/svg" p-id="6884" width="128" height="128"><path d="M512 12.8C236.8 12.8 12.8 236.8 12.8 512c0 275.2 224 499.2 499.2 499.2 275.2 0 499.2-224 499.2-499.2C1011.2 236.8 787.2 12.8 512 12.8zM512 966.4c-249.6 0-454.4-204.8-454.4-454.4 0-249.6 204.8-454.4 454.4-454.4s454.4 204.8 454.4 454.4C966.4 761.6 761.6 966.4 512 966.4zM832 544l-185.6 0L620.8 460.8C620.8 454.4 614.4 448 608 448c-6.4 0-12.8 0-12.8 6.4L505.6 588.8 416 390.4c0-6.4-6.4-12.8-12.8-12.8C396.8 377.6 390.4 384 384 384L300.8 492.8 185.6 492.8C179.2 492.8 172.8 499.2 172.8 512c0 6.4 6.4 19.2 12.8 19.2l128 0c12.8 0 19.2-6.4 19.2-6.4l64-83.2 89.6 204.8c0 6.4 6.4 12.8 12.8 12.8 0 0 0 0 0 0 6.4 0 19.2 0 19.2-6.4L601.6 512l12.8 57.6C620.8 576 627.2 576 633.6 576l204.8 0c6.4 0 12.8-6.4 12.8-19.2C851.2 550.4 844.8 544 832 544zM492.8 480l76.8-96L531.2 384l6.4-76.8L467.2 403.2l38.4 0L492.8 480z" p-id="6885"></path></svg>