<?xml version="1.0" encoding="utf-8"?>
<!-- Generator: Adobe Illustrator 23.0.6, SVG Export Plug-In . SVG Version: 6.00 Build 0)  -->
<svg version="1.1" id="图层_1" xmlns="http://www.w3.org/2000/svg" xmlns:xlink="http://www.w3.org/1999/xlink" x="0px" y="0px"
	 viewBox="0 0 293.13 293.13" style="enable-background:new 0 0 293.13 293.13;" xml:space="preserve">
<style type="text/css">
	.st0{fill-rule:evenodd;clip-rule:evenodd;fill:#004E9A;}
	.st1{fill-rule:evenodd;clip-rule:evenodd;fill:#F8F8EF;}
	.st2{fill-rule:evenodd;clip-rule:evenodd;fill:#F8784F;}
</style>
<g>
	<path class="st0" d="M63.31,0h166.52c34.82,0,63.31,28.49,63.31,63.31v166.52c0,34.82-28.49,63.31-63.31,63.31H63.31
		C28.49,293.13,0,264.64,0,229.83V63.31C0,28.49,28.49,0,63.31,0z" fill="#004E9A"/>
	<path class="st1" d="M73.11,157.87l-39.34,39.7c-1.68,1.67-4.01,3.3-4.43,6.91c-0.78,6.65,5.44,12.25,12.24,9.47
		c2.7-1.11,9.34-8.46,11.75-10.87c5.39-5.38,18.13-18.63,22.78-22.73c2.33-2.61,4.91-4.97,7.4-7.46l81.7-81.55
		c5.21-5.2,9.73-11.23,17.28-12.51c4.38-0.74,9.01,0.18,12.2,2.14c2.27,1.39,6.83,5.55,7.89,7.24c-2.69,2.75-2.69,1.53-6.86,6.55
		c-8.98,10.78-5.5,22.45-7.03,33.84c-3.83,28.51-26.61,50.44-55.25,53.44c-8.13,0.85-18.55,0.33-26.93,0.32
		c-21.99-0.02-8.81,16.33-1.68,24.49c1.26,1.22,2.17,1.93,3.54,3.3c3.23,3.23,11.17,8.63,15.45,10.97
		c11.79,6.44,25.78,11.17,41.67,11.22c20.18,0.07,39.57-6.55,54.28-18.17c6.08-4.8,16.47-16.51,16.66-16.55l6.73-10.82
		c4.39-7.93,7.35-16.06,9.11-25.2c3.11-16.15-10.93-16.28-15.42-10.25c-1.82,2.44-2.57,9.9-3.66,13.47
		c-2.75,9-7.03,16.78-11.78,22.87c-16.26,20.87-45.45,32.62-73.9,24.13c-5.62-1.68-20.31-8.01-22.81-11.72
		c47.12,0.98,80.56-35.61,82.24-76.19c0.29-6.99-2.3-19.53,9.48-22.45c6.63-1.64,19.99,2.77,18.8-4.98
		c-0.38-2.45-17.32-18.18-19.7-20.55c-5.01-5.02-9.08-10.1-18.32-13.24c-8.96-3.04-18.57-2.31-26.72,1.38
		c-8.11,3.67-12.4,9.37-17.48,14.42L89.42,142.1c-2.7,2.72-5.13,5.28-7.96,7.81C79.39,151.77,75.18,156.89,73.11,157.87z"/>
	<path class="st2" d="M242.57,112.82h1.02c5.69,0,10.34,4.65,10.34,10.34l0,0c0,5.69-4.65,10.34-10.34,10.34h-1.02
		c-5.69,0-10.34-4.65-10.34-10.34l0,0C232.23,117.47,236.89,112.82,242.57,112.82z"/>
</g>
</svg>
