<?xml version="1.0" encoding="utf-8"?>
<!-- Generator: Adobe Illustrator 23.0.6, SVG Export Plug-In . SVG Version: 6.00 Build 0)  -->
<svg version="1.1" id="图层_1" xmlns="http://www.w3.org/2000/svg" xmlns:xlink="http://www.w3.org/1999/xlink" x="0px" y="0px"
    viewBox="0 0 90.6 43.2" style="enable-background:new 0 0 90.6 43.2;" xml:space="preserve">
    <style type="text/css">
        <!-- .st0{fill:#0A5694;} -->
    </style>
    <g>
        <path class="st0" d="M0,0v7.1v36.1l23.9-7.1v-29L0,0z M22.2,11.7h-8.6v22.3h-3.3V11.7H1.8V8.8h20.4V11.7z" />
        <g transform="translate(44.6875, 0)">
            <g transform="translate(0,15)">
                <g transform="scale(1)">
                    <path class="st0" d="M-3.5,0.6v18.5h-2.9v-2.6l-0.1-0.1c-1.3,2.1-3.3,3.1-5.9,3l0,0c-3.9-0.2-5.8-2-5.9-5.5l0,0V0.6h3.2v12.3
					c0,2.8,1.2,4.1,3.6,4.1l0,0c3.1-0.1,4.8-2.2,5.1-6.2l0,0V0.6H-3.5z" />
                </g>
            </g>
        </g>
        <g transform="translate(74, 0)">
            <g transform="translate(0,15)">
                <g transform="scale(1)">
                    <path class="st0" d="M-27.3,8.3L-27.3,8.3v10.8h-3.2V0.6h3v3.2c1.4-2.5,3.1-3.7,5.2-3.7l0,0c0.2,0,0.4,0,0.5,0.1l0,0
					c0.1,0,0.2,0,0.3,0l0,0v3.3h-1.2C-25.6,3.7-27.1,5.3-27.3,8.3z" />
                </g>
            </g>
        </g>
        <g transform="translate(93.46875, 0)">
            <g transform="translate(0,15)">
                <g transform="scale(1)">
                    <path class="st0" d="M-35.6,16.8v2.2h-2.9V-6.2h3v9.1h0.1c1.1-1.8,2.8-2.8,5.2-2.9l0,0c4.9,0.3,7.4,3.4,7.7,9.2l0,0
					c-0.3,6.5-3,9.9-8.1,10.1l0,0c-2.3,0-4-0.8-5-2.5l0,0H-35.6z M-25.5,9.8L-25.5,9.8c0.1-4.6-1.6-6.9-5.1-6.9l0,0
					c-3.3,0-5,2.6-5,7.9l0,0c0.1,3.9,1.8,5.9,5.1,6.2l0,0C-27.3,16.9-25.6,14.5-25.5,9.8z" />
                </g>
            </g>
        </g>
        <g transform="translate(124.890625, 0)">
            <g transform="translate(0,15)">
                <g transform="scale(1)">
                    <path class="st0" d="M-51.4,9.8L-51.4,9.8c0.4-6.3,3.2-9.5,8.5-9.8l0,0c5.3,0.3,8.2,3.5,8.5,9.8l0,0c-0.4,6.2-3.2,9.3-8.5,9.5
					l0,0C-48.2,19.1-51.1,16-51.4,9.8z M-48.3,9.8L-48.3,9.8c0.3,4.6,2.1,6.9,5.4,7l0,0c3.3-0.1,5.1-2.4,5.4-7l0,0
					c-0.3-4.6-2.1-6.9-5.4-7l0,0C-46.2,2.9-48,5.2-48.3,9.8z" />
                </g>
            </g>
        </g>
    </g>
</svg>