<svg t="1649237813296" class="icon" viewBox="0 0 1310 1024" version="1.1" xmlns="http://www.w3.org/2000/svg" p-id="7163" width="128" height="128"><path d="M1055.614192 471.613705c-84.499925-142.253146-254.605689-211.80277-416.355667-170.187683A238.631394 238.631394 0 0 0 408.778117 222.45566a235.559414 235.559414 0 0 0-178.789226 163.757005 231.422481 231.422481 0 0 0 62.750308 232.569354 228.186663 228.186663 0 0 0-84.213207 176.495482c0.614396 109.6492 79.461879 203.651784 188.496683 224.746045V1023.99664h632.868806c155.032583-0.081919 280.737998-124.067026 280.819917-277.051622-1.105913-142.621784-111.20567-261.445964-255.097206-275.331313z m-612.143182 172.399509l4.014053-28.467014a283.932857 283.932857 0 0 1 96.255369-174.037897 293.107836 293.107836 0 0 1 190.053152-70.491698c88.35014 0 172.481428 40.427255 227.03979 107.642174a285.571246 285.571246 0 0 0-157.244408 103.62812 41.12357 41.12357 0 0 0-7.946187 30.187322c2.293745 16.383892 14.417825 29.777725 30.678838 33.791778 16.261013 3.973094 33.341221-2.170866 43.130597-15.605658a197.425904 197.425904 0 0 1 158.800878-79.093241c109.116724 0 198.245099 87.735744 198.245099 195.377918 0 107.683133-89.128375 195.582716-198.245099 195.582717H439.456956c-81.673704-1.146872-147.373113-66.641483-147.618871-147.250234 0-71.188013 51.281583-132.136093 122.715354-144.71073l28.917571-6.389718v-0.163839z m-138.77157-191.363865c0-83.885529 69.795382-152.738838 154.909704-152.738837 35.962644 0 70.532657 12.615597 96.992643 33.996577a386.086426 386.086426 0 0 0-67.419717 45.915858 373.757547 373.757547 0 0 0-118.701301 196.238073c-0.819195 0-0.819195 0-1.63839 0.778234a152.165401 152.165401 0 0 1-64.142939-124.189905z m401.896883-205.740729h0.819195a39.730939 39.730939 0 0 0 28.83565-11.837363l51.281584-48.291523a41.08261 41.08261 0 0 0 0.860154-58.613375 42.106604 42.106604 0 0 0-29.531966-12.574638 41.983724 41.983724 0 0 0-29.900604 11.796403l-51.363503 48.291523a41.12357 41.12357 0 0 0-0.819194 58.531456c7.864268 7.946188 18.595718 12.533678 29.818684 12.697517z m-258.292065-94.166422c11.100087 0.204799 21.831537-4.095973 29.695805-11.837363a40.017657 40.017657 0 0 0 11.919282-29.286207V41.12693A41.574127 41.574127 0 0 0 448.222339 0.00336a41.574127 41.574127 0 0 0-41.697007 41.12357v70.409778a40.713973 40.713973 0 0 0 12.16504 29.204288c7.864268 7.741389 18.513799 12.083121 29.613886 12.001202zM113.827093 394.035974l-70.614577-2.334705a42.229483 42.229483 0 0 0-39.403261 24.330081c-7.004114 15.155101-4.136933 32.972584 7.290832 45.260503 7.741389 8.028107 18.472839 12.574637 29.736765 12.697516l72.990241 2.334705c10.977208 0.081919 21.503859-4.095973 29.327168-11.673523a40.509174 40.509174 0 0 0 12.369838-28.753732A42.475241 42.475241 0 0 0 113.827093 394.035974z m116.243717-189.192998a41.20549 41.20549 0 0 0-12.779436-29.163329L165.927871 127.388124a41.574127 41.574127 0 0 0-29.859644-11.960241 41.697006 41.697006 0 0 0-29.531966 12.738476 40.713973 40.713973 0 0 0 0.819194 58.613375l51.363503 48.291523c12.206 11.632564 30.269241 14.909342 45.83394 8.314826 15.605658-6.594517 25.640792-21.790577 25.517912-38.543107z" opacity=".702" p-id="7164"></path></svg>