<svg t="1649237832112" class="icon" viewBox="0 0 1024 1024" version="1.1" xmlns="http://www.w3.org/2000/svg" p-id="7300" width="128" height="128"><path d="M96 66a32 32 0 0 1 32 32V848h796a32 32 0 0 1 0 64H96a32 32 0 0 1-32-32V98a32 32 0 0 1 32-32z m553.492 83.436a32 32 0 0 1 43.268 2.068l170 172a32 32 0 0 1-45.52 44.992l-149.32-151.08-207.412 173.148a32.008 32.008 0 0 1-39.752 1.004l-194-146a32 32 0 1 1 38.488-51.136l173.728 130.744 210.52-175.74z" p-id="7301"></path><path d="M256 408a32 32 0 0 1 32 32v296a32 32 0 0 1-64 0v-296a32 32 0 0 1 32-32zM448 532a32 32 0 0 1 32 32v172a32 32 0 0 1-64 0v-172a32 32 0 0 1 32-32zM640 444a32 32 0 0 1 32 32v260a32 32 0 0 1-64 0v-260a32 32 0 0 1 32-32zM832 532a32 32 0 0 1 32 32v172a32 32 0 0 1-64 0v-172a32 32 0 0 1 32-32z" p-id="7302"></path></svg>