<svg t="1649237847537" class="icon" viewBox="0 0 1024 1024" version="1.1" xmlns="http://www.w3.org/2000/svg" p-id="7438" width="128" height="128"><path d="M204.8 1024H25.6a25.6 25.6 0 0 1-25.6-25.6V537.6a25.6 25.6 0 0 1 51.2 0v435.2h128V550.4a25.6 25.6 0 0 1 51.2 0v448a25.6 25.6 0 0 1-25.6 25.6zM204.8 358.4a25.6 25.6 0 0 1-25.6-25.6v-76.8H51.2v76.8a25.6 25.6 0 0 1-51.2 0v-102.4a25.6 25.6 0 0 1 25.6-25.6h179.2a25.6 25.6 0 0 1 25.6 25.6v102.4a25.6 25.6 0 0 1-25.6 25.6zM601.6 1024H422.4a25.6 25.6 0 0 1-25.6-25.6V819.2a25.6 25.6 0 0 1 51.2 0v153.6h128V819.2a25.6 25.6 0 0 1 51.2 0v179.2a25.6 25.6 0 0 1-25.6 25.6zM601.6 640a25.6 25.6 0 0 1-25.6-25.6V51.2H448v563.2a25.6 25.6 0 0 1-51.2 0V25.6a25.6 25.6 0 0 1 25.6-25.6h179.2a25.6 25.6 0 0 1 25.6 25.6v588.8a25.6 25.6 0 0 1-25.6 25.6zM998.4 1024H819.2a25.6 25.6 0 0 1-25.6-25.6V537.6a25.6 25.6 0 0 1 25.6-25.6h179.2a25.6 25.6 0 0 1 25.6 25.6v460.8a25.6 25.6 0 0 1-25.6 25.6z m-153.6-51.2h128V563.2H844.8v409.6z" fill="#333333" p-id="7439"></path><path d="M665.6 742.4H371.2a25.6 25.6 0 0 1-23.3088-15.0144L226.7136 460.8H25.6a25.6 25.6 0 0 1 0-51.2h217.6a25.6 25.6 0 0 1 23.3088 15.0016L387.6864 691.2h256.384L742.784 123.6096A25.5744 25.5744 0 0 1 768 102.4h230.4a25.6 25.6 0 0 1 0 51.2H789.5424l-98.7136 567.5904A25.6 25.6 0 0 1 665.6 742.4z" fill="#333333" p-id="7440"></path></svg>