<svg t="1648521943945" class="icon" viewBox="0 0 1098 1024" version="1.1" xmlns="http://www.w3.org/2000/svg" p-id="1265" width="200" height="200"><path d="M338.85421164 511.99352731c-61.71452302 1.90426579-112.1872757 26.28430507-151.42731979 73.14141234h-76.57064422c-31.23850303 0-57.52410263-7.71415357-78.85679883-23.14375521-21.33269618-15.42830711-31.99969154-37.99987643-31.99969152-67.71341338 0-134.47534112 23.6201453-201.71236441 70.85655229-201.71236439 2.28486005 0 10.57119952 4.00012325 24.85772389 12.00036977 14.28522983 8.00024652 32.85667587 16.09499433 55.71433813 24.28424343 22.85636773 8.1892491 45.52373285 12.28516819 67.99950633 12.2851682 25.5244111 0 50.855936-4.37942297 75.99845831-13.14344708-1.90426579 14.0949327-2.85704596 26.66619387-2.85704596 37.71378347 0 52.95049893 15.42830711 101.71316654 46.28362683 146.28411924z m611.9929679 363.99827121c0 45.71402998-13.90463557 81.80834608-41.71520127 108.28424281S844.3714067 1023.98988642 798.27548791 1023.98988642H298.8516845c-46.09462423 0-83.0472192-13.23794836-110.85649035-39.71384509s-41.71520126-62.57150736-41.71520126-108.28424281c0-20.18961888 0.6666872-39.90414222 2.00006163-59.14227548 1.33337442-19.23813325 4.00012325-39.99993805 8.00024651-62.28411986 4.00012325-22.28547635 9.04752798-42.95277985 15.14350871-61.99802691 6.09468619-19.04783613 14.28522983-37.61928217 24.57033639-55.71433814 10.28510657-18.09505597 22.09388468-33.52465762 35.42892342-46.28362681 13.33374419-12.76155828 29.61903565-22.95216355 48.85587436-30.57181582 19.23813325-7.61965227 40.47632814-11.42818386 63.71458466-11.42818386 3.80982613 0 12.00036978 4.09462455 24.5703364 12.28516819a6465.99600608 6465.99600608 0 0 1 41.71520126 27.4286769c15.23800999 10.09480944 35.61922053 19.23813325 61.14104257 27.4286769 25.5244111 8.1892491 51.2378248 12.28516819 77.14153561 12.2851682 25.90371082 0 51.61841904-4.09462455 77.14153559-12.2851682 25.5244111-8.1892491 45.90303257-17.33257292 61.14104258-27.4286769a6540.10832213 6540.10832213 0 0 1 41.71520126-27.4286769c12.56996661-8.1892491 20.7618048-12.28516819 24.57033639-12.28516819 23.23825651 0 44.47645139 3.80982613 63.71458466 11.42818386 19.23813325 7.61965227 35.52471925 17.81025755 48.85587436 30.57181582 13.33374419 12.76155828 25.14381685 28.18857086 35.42892342 46.28492136 10.28510657 18.09505597 18.47565022 36.66650201 24.5703364 55.71433814 6.09468619 19.04783613 11.14338544 39.7138451 15.1435087 61.9980269 4.00012325 22.28547635 6.6668721 43.04728115 8.00024652 62.28411986 1.33337442 19.23813325 2.00006163 38.95265659 2.00006162 59.14227549zM365.71199715 146.2838765c0 40.3805323-14.28522983 74.85538101-42.85698401 103.42842975-28.57175419 28.57175419-63.04789744 42.85698402-103.42842976 42.85698402-40.3805323 0-74.85538101-14.28522983-103.42842975-42.85698402-28.57175419-28.57175419-42.85698402-63.04789744-42.85698401-103.42842975 0-40.3805323 14.28522983-74.85667555 42.85698401-103.42972429 28.57175419-28.57175419 63.04789744-42.85698402 103.42842975-42.85698402 40.3805323 0 74.85667555 14.28522983 103.42842976 42.85698402 28.57175419 28.57175419 42.85698402 63.04789744 42.85698401 103.42972429z m402.28035698 219.42812065c0 60.57144573-21.428492 112.28436606-64.28418149 155.14135008s-94.5711989 64.28418149-155.14135008 64.2841815c-60.57144573 0-112.28436606-21.42719747-155.14135008-64.2841815-42.85698402-42.85698402-64.28418149-94.5711989-64.28418149-155.14135008 0-60.57144573 21.428492-112.28436606 64.28418149-155.14135008 42.85698402-42.85698402 94.5711989-64.28418149 155.14135008-64.28418149 60.57144573 0 112.28436606 21.428492 155.14135008 64.28418149 42.85698402 42.85698402 64.28418149 94.5711989 64.28418149 155.14135008z m329.14023917 128.56836299c0 29.71483149-10.66699536 52.28381171-31.99969153 67.71341337s-47.61959031 23.14375522-78.85679882 23.14375522h-76.57064423c-39.23874955-46.85581275-89.71279677-71.23714655-151.42731979-73.14141235 30.85661424-44.57095269 46.28362683-93.33232577 46.28362684-146.28411923 0-11.04888415-0.95148563-23.6201453-2.85704596-37.71378346 25.14381685 8.76272957 50.47534175 13.14344707 75.9984583 13.14344708 22.47577347 0 45.14184407-4.09462455 67.99950634-12.2851682 22.85636773-8.1892491 41.42781377-16.28529147 55.71433813-24.28424345 14.28522983-8.00024652 22.57027476-12.00036978 24.85772389-12.00036977 47.23770153 0 70.8565523 67.23702329 70.85655229 201.7123644z m-73.14141234-347.99648364c0 40.3805323-14.28522983 74.85538101-42.85698402 103.42842975-28.57175419 28.57175419-63.04789744 42.85698402-103.42972429 42.85698402-40.3805323 0-74.85667555-14.28522983-103.42842975-42.85698402-28.57175419-28.57175419-42.85698402-63.04789744-42.85698402-103.42842975 0-40.3805323 14.28522983-74.85667555 42.85698402-103.42972429 28.57175419-28.57175419 63.04789744-42.85698402 103.42842975-42.85698402 40.3805323 0 74.85667555 14.28522983 103.42972429 42.85698402 28.57175419 28.57175419 42.85698402 63.04789744 42.85698402 103.42972429z m0 0z" p-id="1266"></path></svg>