<svg t="1649238223096" class="icon" viewBox="0 0 1024 1024" version="1.1" xmlns="http://www.w3.org/2000/svg" p-id="8451" width="128" height="128"><path d="M512 1024a512 512 0 1 1 512-512 23.272727 23.272727 0 0 1-46.545455 0 465.454545 465.454545 0 1 0-465.454545 465.454545 23.272727 23.272727 0 0 1 0 46.545455z" fill="#3A77D9" p-id="8452"></path><path d="M848.058182 535.272727H488.727273l-4.421818-380.741818a23.272727 23.272727 0 0 1 23.272727-23.272727 23.272727 23.272727 0 0 1 23.272727 23.272727L535.272727 488.727273h312.785455a23.272727 23.272727 0 0 1 0 46.545454zM607.418182 1024a23.272727 23.272727 0 0 1-18.385455-37.585455l134.4-173.381818a23.272727 23.272727 0 0 1 28.858182-6.516363l148.130909 74.589091 78.545455-190.254546a23.272727 23.272727 0 0 1 43.054545 17.803636l-88.087273 213.294546a23.272727 23.272727 0 0 1-32 11.636364l-153.483636-76.916364-122.530909 158.138182a23.272727 23.272727 0 0 1-18.501818 9.192727z" fill="#3A77D9" p-id="8453"></path></svg>