<?xml version="1.0" encoding="utf-8"?>
<!-- Generator: Adobe Illustrator 23.0.6, SVG Export Plug-In . SVG Version: 6.00 Build 0)  -->
<svg version="1.1" id="图层_1" xmlns="http://www.w3.org/2000/svg" xmlns:xlink="http://www.w3.org/1999/xlink" x="0px" y="0px"
	 viewBox="0 0 120 120" style="enable-background:new 0 0 120 120;" xml:space="preserve">
<style type="text/css">
	.st0{fill:#0A5694;}
</style>
<g>
	<path class="st0" d="M14.7,38.4v7.1v36.1l23.9-7.1v-29L14.7,38.4z M36.9,50.1h-8.6v22.3H25V50.1h-8.5v-2.9h20.4V50.1z"/>
	<g transform="translate(44.6875, 0)">
		<g transform="translate(0,15)">
			<g transform="scale(1)">
				<path class="st0" d="M11.2,39v18.5H8.3v-2.6l-0.1-0.1c-1.3,2.1-3.3,3.1-5.9,3l0,0c-3.9-0.2-5.8-2-5.9-5.5l0,0V39h3.2v12.3
					c0,2.8,1.2,4.1,3.6,4.1l0,0c3.1-0.1,4.8-2.2,5.1-6.2l0,0V39H11.2z"/>
			</g>
		</g>
	</g>
	<g transform="translate(74, 0)">
		<g transform="translate(0,15)">
			<g transform="scale(1)">
				<path class="st0" d="M-12.6,46.7L-12.6,46.7v10.8h-3.2V39h3v3.2c1.4-2.5,3.1-3.7,5.2-3.7l0,0c0.2,0,0.4,0,0.5,0.1l0,0
					c0.1,0,0.2,0,0.3,0l0,0v3.3h-1.2C-10.8,42.1-12.4,43.7-12.6,46.7z"/>
			</g>
		</g>
	</g>
	<g transform="translate(93.46875, 0)">
		<g transform="translate(0,15)">
			<g transform="scale(1)">
				<path class="st0" d="M-20.9,55.3v2.2h-2.9V32.2h3v9.1h0.1c1.1-1.8,2.8-2.8,5.2-2.9l0,0c4.9,0.3,7.4,3.4,7.7,9.2l0,0
					c-0.3,6.5-3,9.9-8.1,10.1l0,0c-2.3,0-4-0.8-5-2.5l0,0H-20.9z M-10.8,48.2L-10.8,48.2c0.1-4.6-1.6-6.9-5.1-6.9l0,0
					c-3.3,0-5,2.6-5,7.9l0,0c0.1,3.9,1.8,5.9,5.1,6.2l0,0C-12.6,55.3-10.9,52.9-10.8,48.2z"/>
			</g>
		</g>
	</g>
	<g transform="translate(124.890625, 0)">
		<g transform="translate(0,15)">
			<g transform="scale(1)">
				<path class="st0" d="M-36.7,48.2L-36.7,48.2c0.4-6.3,3.2-9.5,8.5-9.8l0,0c5.3,0.3,8.2,3.5,8.5,9.8l0,0c-0.4,6.2-3.2,9.3-8.5,9.5
					l0,0C-33.5,57.6-36.3,54.4-36.7,48.2z M-33.5,48.2L-33.5,48.2c0.3,4.6,2.1,6.9,5.4,7l0,0c3.3-0.1,5.1-2.4,5.4-7l0,0
					c-0.3-4.6-2.1-6.9-5.4-7l0,0C-31.5,41.3-33.3,43.6-33.5,48.2z"/>
			</g>
		</g>
	</g>
</g>
</svg>
